<?xml version="1.0" standalone="no"?>
<!DOCTYPE svg PUBLIC "-//W3C//DTD SVG 1.1//EN" "http://www.w3.org/Graphics/SVG/1.1/DTD/svg11.dtd" >
<!--
2013-9-30: Created.
-->
<svg>
<metadata>
Created by iconfont
</metadata>
<defs>

<font id="iconfont" horiz-adv-x="1024" >
  <font-face
    font-family="iconfont"
    font-weight="500"
    font-stretch="normal"
    units-per-em="1024"
    ascent="896"
    descent="-128"
  />
    <missing-glyph />
    
    <glyph glyph-name="dingwei" unicode="&#58942;" d="M516.320553 830.086277C327.473365 829.240951 174.512778 674.914838 175.350878 486.045975c0.787526-177.21493 282.974557-496.596289 315.154731-532.417865a39.737529 39.737529 0 0 1 59.440119 0.2601c31.862273 36.110576 311.202653 357.991787 310.415127 535.213942-0.838101 188.861638-155.178664 341.822225-344.040302 340.984125z m2.196402-492.860961c-76.483906-0.339575-139.009102 61.614845-139.348677 138.105976-0.339575 76.491131 61.629295 139.001877 138.105976 139.334227 76.512806 0.3468 139.023552-61.60762 139.363127-138.091526 0.339575-76.498356-61.614845-139.001877-138.120426-139.348677z"  horiz-adv-x="1024" />

    
    <glyph glyph-name="rili" unicode="&#58887;" d="M864-96H160c-35.328 0-64 28.672-64 64V672c0 35.36 28.672 64 64 64h64v-32c0-53.024 42.976-96 96-96 52.992 0 96 42.976 96 96v32h192v-32c0-53.024 43.008-96 96-96s96 42.976 96 96v32h64c35.328 0 64-28.64 64-64v-704c0-35.328-28.672-64-64-64z m0 608H160v-544h704V512zM320 352h-96v96h96v-96z m0-160h-96v96h96v-96z m0-160h-96v96h96v-96z m160 320h-96v96h96v-96z m0-160h-96v96h96v-96z m0-160h-96v96h96v-96z m160 320h-96v96h96v-96z m0-160h-96v96h96v-96z m0-160h-96v96h96v-96z m160 320h-96v96h96v-96z m0-160h-96v96h96v-96z m0-160h-96v96h96v-96z m-96.992 608C668.192 640 640 668.224 640 703.008v65.984C640 803.808 668.192 832 703.008 832s63.008-28.192 63.008-63.008v-65.984c0-34.784-28.192-63.008-63.008-63.008z m-384 0C284.192 640 256 668.224 256 703.008v65.984C256 803.808 284.192 832 319.008 832s63.008-28.192 63.008-63.008v-65.984c0-34.784-28.224-63.008-63.008-63.008z"  horiz-adv-x="1024" />

    
    <glyph glyph-name="tianqi-baoyu" unicode="&#58996;" d="M754.61 554.75c-22.48 113.46-122.56 199-242.64 199s-220.16-85.56-242.64-199A192.4 192.4 0 0 1 127 368.78c0.11-106.26 86.33-192.31 192.59-192.2h384.78a192.4 192.4 0 0 1 186 142.35c27.63 102.6-33.16 208.18-135.76 235.82z m-50.24-323.2H319.58a137.43 137.43 0 0 0 0 274.85c0 106.26 86.14 192.4 192.4 192.4s192.4-86.14 192.4-192.4a137.43 137.43 0 0 0 0-274.85zM287.84 116.47A27.49 27.49 0 0 0 301.16 80l-23.22-49.8a27.49 27.49 0 1 0-49.83 23.22l23.22 49.83a27.49 27.49 0 0 0 36.52 13.32zM452.75 116.47A27.49 27.49 0 0 0 466.07 80l-23.22-49.8A27.49 27.49 0 1 0 393 53.34l23.22 49.83a27.49 27.49 0 0 0 36.52 13.32zM617.66 116.47A27.49 27.49 0 0 0 631 80l-23.22-49.8a27.49 27.49 0 1 0-49.83 23.22l23.22 49.83a27.49 27.49 0 0 0 36.52 13.32zM782.57 116.47A27.49 27.49 0 0 0 795.89 80l-23.22-49.8a27.49 27.49 0 1 0-49.83 23.22L746 103.17a27.49 27.49 0 0 0 36.52 13.32z"  horiz-adv-x="1024" />

    
    <glyph glyph-name="tianqi-duoyun" unicode="&#59000;" d="M597.64 395.88c-16.82 86.3-91.79 151.38-181.64 151.38s-164.89-65.08-181.71-151.38c-61.29-16.82-106.44-73.7-106.44-141.31 0-80.81 64.48-146.33 144.06-146.33H560c79.57 0 144.06 65.52 144.06 146.33 0.01 67.61-45.06 124.49-106.42 141.31zM649.2 260a97 97 0 0 0-97.2-96.89H279.92c-53.67 0-97.19 43.35-97.19 96.83a97 97 0 0 0 97.19 96.86c0 74.88 60.91 135.58 136 135.58s136-60.7 136-135.58c53.67 0 97.19-43.35 97.19-96.83zM582.79 524.9a109.76 109.76 0 0 0 144.72-164.31 27.89 27.89 0 0 0-19.54-8 27.44 27.44 0 0 0-18.27 47.91 54.88 54.88 0 0 1-73.81 80.67 27.44 27.44 0 0 0-33.09 43.77zM896.15 412.81a27.44 27.44 0 0 0-27.44-27.44h-27.44a27.44 27.44 0 0 0 0 54.88h27.44a27.44 27.44 0 0 0 27.44-27.44zM585.92 659a27.44 27.44 0 0 0 32.92-20.54l6.16-26.69a27.44 27.44 0 0 0-53.45-12.35l-6.17 26.73a27.44 27.44 0 0 0 20.55 32.92zM818 605.57a27.44 27.44 0 0 0 4.09-38.57l-17.29-21.33a27.44 27.44 0 1 0-43.91 32.92q0.62 0.82 1.3 1.6l17.29 21.35a27.44 27.44 0 0 0 38.58 4z"  horiz-adv-x="1024" />

    
    <glyph glyph-name="tianqi-qing" unicode="&#59003;" d="M512 603.47c-121.21 0-219.47-98.26-219.47-219.47S390.79 164.53 512 164.53 731.47 262.79 731.47 384 633.21 603.47 512 603.47z m3.92-388a164.6 164.6 0 1 0 164.6 164.6 164.6 164.6 0 0 0-164.6-164.6zM512 768.07a27.43 27.43 0 0 0 27.43-27.43v-82.3a27.43 27.43 0 1 0-54.87 0v82.3A27.43 27.43 0 0 0 512 768.07zM783.6 655.6a27.43 27.43 0 0 0 0-38.8l-58.21-58.19a27.43 27.43 0 1 0-39.47 38.12l0.67 0.67 58.19 58.21a27.43 27.43 0 0 0 38.79 0zM896.07 384a27.43 27.43 0 0 0-27.43-27.43h-82.3a27.43 27.43 0 1 0 0 54.87h82.3A27.43 27.43 0 0 0 896.07 384zM783.6 112.4a27.43 27.43 0 0 0-38.8 0l-58.19 58.21a27.43 27.43 0 0 0 38.79 38.79l58.19-58.19a27.43 27.43 0 0 0 0-38.79zM512-0.07a27.43 27.43 0 0 0-27.43 27.43v82.3a27.43 27.43 0 1 0 54.87 0v-82.3A27.43 27.43 0 0 0 512-0.07zM240.4 112.4a27.43 27.43 0 0 0 0 38.8l58.21 58.19a27.43 27.43 0 0 0 39.47-38.12l-0.67-0.67-58.19-58.2a27.43 27.43 0 0 0-38.79 0zM127.93 384a27.43 27.43 0 0 0 27.43 27.43h82.3a27.43 27.43 0 1 0 0-54.87h-82.3A27.43 27.43 0 0 0 127.93 384zM240.4 655.6a27.43 27.43 0 0 0 38.8 0l58.19-58.21a27.43 27.43 0 0 0-38.12-39.47l-0.67 0.67-58.2 58.19a27.43 27.43 0 0 0 0 38.79z"  horiz-adv-x="1024" />

    
    <glyph glyph-name="tianqi-yin" unicode="&#59008;" d="M754.33 473.47C731.87 586.79 631.92 672.25 512 672.25s-219.92-85.46-242.37-198.78a192.17 192.17 0 0 1-142.18-185.75c0.11-106.13 86.23-192.08 192.36-192h384.33a192.17 192.17 0 0 1 185.75 142.21C917.5 340.4 856.8 445.86 754.33 473.47z m-50.19-322.82H319.81a137.26 137.26 0 0 0 0 274.52c0 106.13 86 192.17 192.17 192.17s192.17-86 192.17-192.17a137.26 137.26 0 1 0 0-274.52z"  horiz-adv-x="1024" />

    
    <glyph glyph-name="tianqi-xiaoxue" unicode="&#59009;" d="M754 569.28c-22.42 113.16-122.23 198.5-242 198.5s-219.6-85.34-242-198.5a191.89 191.89 0 0 1-142-185.47c0.11-106 86.1-191.8 192.08-191.7h383.78a191.89 191.89 0 0 1 185.48 142c27.57 102.3-33.04 207.6-135.34 235.17z m-50.14-322.34H320.09a137.06 137.06 0 1 0 0 274.13C320.09 627 406 713 512 713s191.86-86 191.86-191.94a137.06 137.06 0 1 0 0-274.13zM621.63 101.84v21.74a13.71 13.71 0 0 0 27.41 0v-21.74l15.35 15.35a13.71 13.71 0 0 0 19.41-19.35l-15.35-15.38h21.71a13.71 13.71 0 0 0 0-27.41h-21.74l15.35-15.35a13.71 13.71 0 0 0-19.35-19.41L649 35.64v-21.71a13.71 13.71 0 1 0-27.41 0v21.74l-15.35-15.35a13.71 13.71 0 0 0-19.41 19.35L602.22 55h-21.71a13.71 13.71 0 0 0 0 27.41h21.74l-15.35 15.4a13.71 13.71 0 0 0 19.35 19.41l15.38-15.35zM374.91 123.58a13.71 13.71 0 0 0 27.41 0v-21.74l15.35 15.35a13.71 13.71 0 0 0 19.41-19.35l-15.35-15.38h21.71a13.71 13.71 0 0 0 0-27.41h-21.73l15.35-15.35a13.71 13.71 0 0 0-19.35-19.41l-15.38 15.35v-21.71a13.71 13.71 0 1 0-27.41 0v21.74l-15.35-15.35a13.71 13.71 0 0 0-19.41 19.35L355.5 55h-21.71a13.71 13.71 0 0 0 0 27.41h21.74l-15.35 15.35a13.71 13.71 0 0 0 19.35 19.41l15.38-15.35z"  horiz-adv-x="1024" />

    
    <glyph glyph-name="shuishen" unicode="&#58913;" d="M1193.69 24.758000000000038a135.594 135.594 0 0 1-57.8641 14.4878c-21.6881 0-36.0892-7.20049-57.7774-14.4878a180.966 180.966 0 0 0-216.881 0l50.5768 68.0142a135.594 135.594 0 0 1 57.8641-14.4878c21.6881 0 36.0892 7.20049 57.7774 14.4878a180.966 180.966 0 0 0 216.881 0c7.28724-7.28724 14.4878-7.28724 28.9754-14.4878v-89.7891c-28.9754 7.20049-57.8641 14.4009-79.5527 36.0892ZM355.062 24.758000000000038A177.497 177.497 0 0 0 246.62-11.508000000000038 177.669 177.669 0 0 0 138.527 24.758000000000038a26.0259 26.0259 0 0 1-21.6881 7.28724V121.65999999999997a216.881 216.881 0 0 0 72.0049-29.0622A134.813 134.813 0 0 1 246.62 78.11000000000001c21.6881 0 36.176 7.20049 57.8641 14.4878A172.639 172.639 0 0 0 405.726 128.86a195.02 195.02 0 0 0 108.442-36.2626L463.504 24.58299999999997a134.813 134.813 0 0 1-57.7774 14.4878 133.34 133.34 0 0 1-50.3167-14.3142Zm838.642 216.881a135.594 135.594 0 0 1-57.5171 14.4878c-21.6881 0-36.0892-7.20049-57.7774-14.4878a180.966 180.966 0 0 0-216.881 0l50.2299 67.8408a135.594 135.594 0 0 1 57.8641-14.4878c21.6881 0 36.0892 7.20049 57.7774 14.4878a180.966 180.966 0 0 0 216.881 0c7.28724-7.28724 14.4878-7.28724 28.9754-14.4878v-89.6159c-28.9754 7.20049-57.8641 14.4009-79.5527 36.0892Zm-838.296 0A177.497 177.497 0 0 0 246.62 205.37599999999998 177.669 177.669 0 0 0 138.527 241.639 26.0259 26.0259 0 0 1 116.492 248.75400000000002V338.54200000000003a216.881 216.881 0 0 0 72.3518-29.0622A134.813 134.813 0 0 1 246.62 294.99199999999996c21.6881 0 36.176 7.20049 57.8641 14.4878A172.639 172.639 0 0 0 405.726 345.74199999999996a195.02 195.02 0 0 0 108.442-36.2626L463.504 241.46500000000003a134.813 134.813 0 0 1-57.7774 14.4878 133.34 133.34 0 0 1-50.3167-14.3142Zm838.642 216.881a135.594 135.594 0 0 1-57.8641 14.4878c-21.6881 0-36.0892-7.20049-57.7774-14.4878a180.966 180.966 0 0 0-216.881 0l50.2299 67.8408a135.594 135.594 0 0 1 57.8641-14.4878c21.6881 0 36.0892 7.20049 57.7774 14.4878a180.966 180.966 0 0 0 216.881 0c7.28724-7.28724 14.4878-7.28724 28.9754-14.4878v-89.6159c-28.9754 7.20049-57.8641 14.4009-79.5527 36.0892Zm-838.642 0A177.497 177.497 0 0 0 246.62 422.258 177.669 177.669 0 0 0 138.527 458.522 26.0259 26.0259 0 0 1 116.492 465.636V555.424a216.881 216.881 0 0 0 72.3518-29.0622A134.813 134.813 0 0 1 246.62 511.874c21.6881 0 36.176 7.20049 57.8641 14.4878A172.639 172.639 0 0 0 405.726 562.626a195.02 195.02 0 0 0 108.442-36.2626L463.504 458.348a134.813 134.813 0 0 1-57.7774 14.4878 133.34 133.34 0 0 1-50.3167-14.3142Zm838.642 216.881a135.594 135.594 0 0 1-57.8641 14.4878c-21.6881 0-36.0892-7.20049-57.7774-14.4878a180.966 180.966 0 0 0-216.881 0l50.2299 67.8408a135.594 135.594 0 0 1 57.8641-14.4878c21.6881 0 36.0892 7.20049 57.7774 14.4878A195.02 195.02 0 0 0 1136.18 779.5070000000001 177.497 177.497 0 0 0 1244.28 743.244c7.28724-7.28724 14.4878-7.28724 28.9754-14.4878v-89.6159c-28.9754 7.20049-57.8641 14.4009-79.5527 36.0892Zm-838.642 0A194.587 194.587 0 0 0 246.62 639.142 195.02 195.02 0 0 0 138.527 675.403c-7.20049 0-14.4009 7.28724-21.6881 7.28724V779.5070000000001a215.061 215.061 0 0 0 72.3518-28.8887A136.115 136.115 0 0 1 246.968 736.131c21.6881 0 36.176 7.28724 57.8641 14.4878C333.721 765.105 369.897 779.5070000000001 406.074 779.5070000000001a195.02 195.02 0 0 0 108.094-36.2626L463.504 675.23a134.813 134.813 0 0 1-57.7774 14.4878 133.34 133.34 0 0 1-50.3167-14.3142ZM566.999-8.903999999999996h255.747V777.078H566.999ZM763.668 719.387v-670.687H626.079v112.778h49.102v57.4304h-49.102v71.6578h88.4883v57.6907h-88.4883v71.6578h49.102v57.6038h-49.102v71.7445h88.4883V606.869h-88.4883v112.778Z"  horiz-adv-x="1497" />

    
    <glyph glyph-name="shuizhirongyang" unicode="&#58912;" d="M1193.82 24.672000000000025a136.912 136.912 0 0 1-57.8706 14.4025c-21.6906 0-36.0932-7.20127-57.7837-14.4025a180.639 180.639 0 0 0-216.906 0l50.5823 67.935a136.912 136.912 0 0 1 57.8706-14.4893c21.6906 0 36.0932 7.28804 57.7837 14.4893a180.639 180.639 0 0 0 216.906 0c7.28804-7.20127 14.4893-7.20127 28.9786-14.4893v-89.6256c-28.9786 7.20127-57.8706 14.4893-79.5611 36.1799ZM355.089 24.672000000000025a180.639 180.639 0 0 0-216.906 0 26.5493 26.5493 0 0 1-21.6906 7.20127V121.49900000000002a215.083 215.083 0 0 0 72.3598-28.8919A136.131 136.131 0 0 1 246.635 78.11800000000005c21.6906 0 36.1799 7.28804 57.8706 14.4893A172.745 172.745 0 0 0 405.759 128.78599999999994a195.128 195.128 0 0 0 108.453-36.1799L463.543 24.672000000000025a136.131 136.131 0 0 1-57.7837 14.4025A134.742 134.742 0 0 1 355.089 24.672000000000025Zm838.732 216.906a136.912 136.912 0 0 1-57.8706 14.4025c-21.6906 0-36.0932-7.20127-57.7837-14.4025a180.639 180.639 0 0 0-216.906 0l50.5823 67.935a136.912 136.912 0 0 1 57.8706-14.4893c21.6906 0 36.0932 7.28804 57.7837 14.4893a180.639 180.639 0 0 0 216.906 0c7.28804-7.20127 14.4893-7.20127 28.9786-14.4893v-89.6256c-28.9786 7.20127-57.8706 14.4893-79.5611 36.1799ZM355.089 241.57799999999997a180.639 180.639 0 0 0-216.906 0 26.5493 26.5493 0 0 1-21.6906 7.20127V338.404a215.083 215.083 0 0 0 72.3598-28.8919A136.131 136.131 0 0 1 246.635 295.024c21.6906 0 36.1799 7.28804 57.8706 14.4893A172.745 172.745 0 0 0 405.759 345.693a195.128 195.128 0 0 0 108.453-36.1799L463.543 241.57799999999997a136.131 136.131 0 0 1-57.7837 14.4025A134.742 134.742 0 0 1 355.089 241.57799999999997Zm838.732 216.906a136.912 136.912 0 0 1-57.8706 14.4025c-21.6906 0-36.0932-7.20127-57.7837-14.4025a180.639 180.639 0 0 0-216.906 0l50.5823 67.935a136.912 136.912 0 0 1 57.8706-14.4893c21.6906 0 36.0932 7.28804 57.7837 14.4893a180.639 180.639 0 0 0 216.906 0c7.28804-7.20127 14.4893-7.20127 28.9786-14.4893v-89.6256c-28.9786 7.20127-57.8706 14.4893-79.5611 36.1799ZM355.089 458.483a180.639 180.639 0 0 0-216.906 0 26.5493 26.5493 0 0 1-21.6906 7.20127V555.3109999999999a215.083 215.083 0 0 0 72.3598-28.8919A136.131 136.131 0 0 1 246.635 511.929c21.6906 0 36.1799 7.28804 57.8706 14.4893A172.745 172.745 0 0 0 405.759 562.5989999999999a195.128 195.128 0 0 0 108.453-36.1799L463.543 458.483a136.131 136.131 0 0 1-57.7837 14.4025A134.742 134.742 0 0 1 355.089 458.483Zm838.732 216.906a136.912 136.912 0 0 1-57.8706 14.4025c-21.6906 0-36.0932-7.20127-57.7837-14.4025a180.639 180.639 0 0 0-216.906 0l50.5823 67.935a136.912 136.912 0 0 1 57.8706-14.4893c21.6906 0 36.0932 7.28804 57.7837 14.4893A195.128 195.128 0 0 0 1135.95 779.504 177.516 177.516 0 0 0 1244.4 743.325c7.28804-7.20127 14.4893-7.20127 28.9786-14.4893v-89.6256c-28.9786 7.20127-57.8706 14.4893-79.5611 36.1799ZM355.089 675.39A194.695 194.695 0 0 0 246.635 639.21 195.128 195.128 0 0 0 138.183 675.39c-7.20127 0-14.4025 7.20127-21.6906 7.20127V779.504a216.906 216.906 0 0 0 72.3598-28.9786A136.131 136.131 0 0 1 246.635 736.123c21.6906 0 36.1799 7.20127 57.8706 14.4025C333.398 765.016 369.578 779.504 405.759 779.504a195.128 195.128 0 0 0 108.453-36.1799L463.543 675.39a136.131 136.131 0 0 1-57.7837 14.4025A134.742 134.742 0 0 1 355.089 675.39ZM699.536 390.114c0-183.416-29.8463-341.409-87.717-341.409-55.9617 0-85.2007 150.36-85.2007 339.155 0 191.918 32.3624 339.24 87.717 339.24 52.1442 0 85.2007-135.176 85.2007-336.985Zm-133.094 0.694098c0-128.756 15.2701-226.103 46.8517-226.103 34.705 0 46.4179 106.197 46.4179 223.673 0 124.678-13.7952 222.372-47.0252 222.372s-46.2443-91.6208-46.2443-219.943ZM722.788 58.25v8.67621c0 109.582 13.3614 198.685 50.1486 297.942 24.0332 64.8982 31.3211 87.2828 31.3211 142.291s-7.20127 85.2007-21.5171 85.2007c-16.6583 0-22.6449-37.7417-24.9876-92.4891h-35.8328c2.42934 108.54 21.6906 199.034 60.7336 199.034 43.3812 0 58.7381-96.3066 58.7381-190.877 0-91.7077-10.6718-135.956-41.993-216.906-20.9965-54.5735-29.4124-90.407-32.3624-118.778h80.689l-4.33812-114.093Z"  horiz-adv-x="1497" />

    
    <glyph glyph-name="shuizhiph" unicode="&#58911;" d="M1193.82 24.672000000000025a136.912 136.912 0 0 1-57.8706 14.4025c-21.6906 0-36.0932-7.20127-57.7837-14.4025a180.639 180.639 0 0 0-216.906 0l50.5823 67.935a136.912 136.912 0 0 1 57.8706-14.4893c21.6906 0 36.0932 7.28804 57.7837 14.4893a180.639 180.639 0 0 0 216.906 0c7.28804-7.20127 14.4893-7.20127 28.9786-14.4893v-89.6256c-28.9786 7.20127-57.8706 14.4893-79.5611 36.1799ZM355.089 24.672000000000025a180.639 180.639 0 0 0-216.906 0 26.5493 26.5493 0 0 1-21.6906 7.20127V121.49900000000002a215.083 215.083 0 0 0 72.3598-28.8919A136.131 136.131 0 0 1 246.635 78.11800000000005c21.6906 0 36.1799 7.28804 57.8706 14.4893A172.745 172.745 0 0 0 405.759 128.78599999999994a195.128 195.128 0 0 0 108.453-36.1799L463.543 24.672000000000025a136.131 136.131 0 0 1-57.7837 14.4025A134.742 134.742 0 0 1 355.089 24.672000000000025Zm838.732 216.906a136.912 136.912 0 0 1-57.8706 14.4025c-21.6906 0-36.0932-7.20127-57.7837-14.4025a180.639 180.639 0 0 0-216.906 0l50.5823 67.935a136.912 136.912 0 0 1 57.8706-14.4893c21.6906 0 36.0932 7.28804 57.7837 14.4893a180.639 180.639 0 0 0 216.906 0c7.28804-7.20127 14.4893-7.20127 28.9786-14.4893v-89.6256c-28.9786 7.20127-57.8706 14.4893-79.5611 36.1799ZM355.089 241.57799999999997a180.639 180.639 0 0 0-216.906 0 26.5493 26.5493 0 0 1-21.6906 7.20127V338.404a215.083 215.083 0 0 0 72.3598-28.8919A136.131 136.131 0 0 1 246.635 295.024c21.6906 0 36.1799 7.28804 57.8706 14.4893A172.745 172.745 0 0 0 405.759 345.693a195.128 195.128 0 0 0 108.453-36.1799L463.543 241.57799999999997a136.131 136.131 0 0 1-57.7837 14.4025A134.742 134.742 0 0 1 355.089 241.57799999999997Zm838.732 216.906a136.912 136.912 0 0 1-57.8706 14.4025c-21.6906 0-36.0932-7.20127-57.7837-14.4025a180.639 180.639 0 0 0-216.906 0l50.5823 67.935a136.912 136.912 0 0 1 57.8706-14.4893c21.6906 0 36.0932 7.28804 57.7837 14.4893a180.639 180.639 0 0 0 216.906 0c7.28804-7.20127 14.4893-7.20127 28.9786-14.4893v-89.6256c-28.9786 7.20127-57.8706 14.4893-79.5611 36.1799ZM355.089 458.483a180.639 180.639 0 0 0-216.906 0 26.5493 26.5493 0 0 1-21.6906 7.20127V555.3109999999999a215.083 215.083 0 0 0 72.3598-28.8919A136.131 136.131 0 0 1 246.635 511.929c21.6906 0 36.1799 7.28804 57.8706 14.4893A172.745 172.745 0 0 0 405.759 562.5989999999999a195.128 195.128 0 0 0 108.453-36.1799L463.543 458.483a136.131 136.131 0 0 1-57.7837 14.4025A134.742 134.742 0 0 1 355.089 458.483Zm838.732 216.906a136.912 136.912 0 0 1-57.8706 14.4025c-21.6906 0-36.0932-7.20127-57.7837-14.4025a180.639 180.639 0 0 0-216.906 0l50.5823 67.935a136.912 136.912 0 0 1 57.8706-14.4893c21.6906 0 36.0932 7.28804 57.7837 14.4893A195.128 195.128 0 0 0 1135.95 779.504 177.516 177.516 0 0 0 1244.4 743.325c7.28804-7.20127 14.4893-7.20127 28.9786-14.4893v-89.6256c-28.9786 7.20127-57.8706 14.4893-79.5611 36.1799ZM355.089 675.39A194.695 194.695 0 0 0 246.635 639.21 195.128 195.128 0 0 0 138.183 675.39c-7.20127 0-14.4025 7.20127-21.6906 7.20127V779.504a216.906 216.906 0 0 0 72.3598-28.9786A136.131 136.131 0 0 1 246.635 736.123c21.6906 0 36.1799 7.20127 57.8706 14.4025C333.398 765.016 369.578 779.504 405.759 779.504a195.128 195.128 0 0 0 108.453-36.1799L463.543 675.39a136.131 136.131 0 0 1-57.7837 14.4025A134.742 134.742 0 0 1 355.089 675.39ZM535.38 717.556h73.748c37.9151 0 63.5969-78.8667 63.5969-204.152 0-143.245-28.8919-208.924-64.4646-208.924h-33.8374v-246.232h-39.043Zm39.043-299.59h29.4124c17.873 0 30.4535 25.3345 30.4535 92.6622s-13.2746 93.4435-29.6727 93.4435h-30.1933ZM701.705 717.556h38.5224v-257.164h71.7524V717.556h38.5224v-659.394h-38.5224V343.523h-71.7524v-285.275h-38.5224Z"  horiz-adv-x="1497" />

    
    <glyph glyph-name="shuiwen" unicode="&#58910;" d="M1193.82 24.67100000000005a135.61 135.61 0 0 1-57.8706 14.4893c-21.6906 0-36.0932-7.20127-57.7838-14.4893a180.987 180.987 0 0 0-216.906 0l50.5823 68.0215a135.61 135.61 0 0 1 57.8706-14.4893c21.6906 0 36.0932 7.20127 57.7838 14.4893a180.987 180.987 0 0 0 216.906 0c7.28804-7.28804 14.4893-7.28804 28.9786-14.4893v-89.6256c-28.9786 7.20127-57.8706 14.4023-79.5611 36.0932ZM355.089 24.67100000000005a180.987 180.987 0 0 0-216.906 0 26.0287 26.0287 0 0 1-21.6906 7.28804V121.58600000000001a216.906 216.906 0 0 0 72.3598-28.8919A134.828 134.828 0 0 1 246.635 78.20399999999995c21.6906 0 36.1798 7.20127 57.8706 14.4893A172.658 172.658 0 0 0 405.758 128.78599999999994a195.041 195.041 0 0 0 108.453-36.0932L463.542 24.67100000000005a134.828 134.828 0 0 1-57.7838 14.4893A133.354 133.354 0 0 1 355.089 24.67100000000005Zm838.732 216.906a135.61 135.61 0 0 1-57.8706 14.4893c-21.6906 0-36.0932-7.20127-57.7838-14.4893a180.987 180.987 0 0 0-216.906 0l50.5823 68.0215a135.61 135.61 0 0 1 57.8706-14.4893c21.6906 0 36.0932 7.20127 57.7838 14.4893a180.987 180.987 0 0 0 216.906 0c7.28804-7.28804 14.4893-7.28804 28.9786-14.4893v-89.6256c-28.9786 7.20127-57.8706 14.4023-79.5611 36.0932ZM355.089 241.577a180.987 180.987 0 0 0-216.906 0 26.0287 26.0287 0 0 1-21.6906 7.28804V338.49199999999996a216.906 216.906 0 0 0 72.3598-28.8919A134.828 134.828 0 0 1 246.635 295.11c21.6906 0 36.1798 7.20127 57.8706 14.4893A172.658 172.658 0 0 0 405.758 345.69399999999996a195.041 195.041 0 0 0 108.453-36.0932L463.542 241.577a134.828 134.828 0 0 1-57.7838 14.4893A133.354 133.354 0 0 1 355.089 241.577Zm838.732 216.906a135.61 135.61 0 0 1-57.8706 14.4893c-21.6906 0-36.0932-7.20127-57.7838-14.4893a180.987 180.987 0 0 0-216.906 0l50.5823 68.0215a135.61 135.61 0 0 1 57.8706-14.4893c21.6906 0 36.0932 7.20127 57.7838 14.4893a180.987 180.987 0 0 0 216.906 0c7.28804-7.28804 14.4893-7.28804 28.9786-14.4893v-89.6256c-28.9786 7.20127-57.8706 14.4023-79.5611 36.0932ZM355.089 458.483a180.987 180.987 0 0 0-216.906 0 26.0287 26.0287 0 0 1-21.6906 7.28804V555.3969999999999a216.906 216.906 0 0 0 72.3598-28.8919A134.828 134.828 0 0 1 246.635 512.0160000000001c21.6906 0 36.1798 7.20127 57.8706 14.4893A172.658 172.658 0 0 0 405.758 562.598a195.041 195.041 0 0 0 108.453-36.0932L463.542 458.483a134.828 134.828 0 0 1-57.7838 14.4893A133.354 133.354 0 0 1 355.089 458.483Zm838.732 216.906a135.61 135.61 0 0 1-57.8706 14.4893c-21.6906 0-36.0932-7.20127-57.7838-14.4893a180.987 180.987 0 0 0-216.906 0l50.5823 68.0215a135.61 135.61 0 0 1 57.8706-14.4893c21.6906 0 36.0932 7.20127 57.7838 14.4893A195.041 195.041 0 0 0 1135.96 779.503 177.516 177.516 0 0 0 1244.42 743.4110000000001c7.28804-7.28804 14.4893-7.28804 28.9786-14.4893v-89.6256c-28.9786 7.20127-57.8706 14.4023-79.5611 36.0932ZM355.089 675.391A194.608 194.608 0 0 0 246.635 639.296 195.041 195.041 0 0 0 138.183 675.391c-7.20127 0-14.4023 7.28804-21.6906 7.28804V779.503a215.084 215.084 0 0 0 72.3598-28.8919A136.131 136.131 0 0 1 246.635 736.123c21.6906 0 36.1798 7.28804 57.8706 14.4893C333.398 765.1 369.577 779.503 405.758 779.503a195.041 195.041 0 0 0 108.453-36.0932L463.542 675.391a134.828 134.828 0 0 1-57.7838 14.4893A133.354 133.354 0 0 1 355.089 675.391ZM694.937 777.595C612.773 777.595 546.139 689.273 546.139 580.385v-394.595c0-108.887 66.6334-197.211 148.797-197.211s148.797 88.3239 148.797 197.211V580.385C843.734 689.273 777.101 777.595 694.937 777.595ZM794.105 481.647v-32.883c-13.7085 0-24.814-14.7495-24.814-32.883s11.1056-32.883 24.814-32.883v-32.883c-13.7085 0-24.814-14.7495-24.814-32.883s11.1056-32.883 24.814-32.883v-98.5622c0-72.6201-44.4224-131.446-99.1687-131.446S595.768 113.16899999999998 595.768 185.78999999999996V284.438c13.7085 0 24.814 14.7495 24.814 32.883s-11.1056 32.883-24.814 32.883v32.883c13.7085 0 24.814 14.7495 24.814 32.883s-11.1056 32.883-24.814 32.883v32.7964c13.7085 0 24.814 14.6626 24.814 32.883s-11.1056 32.883-24.814 32.883v32.9697c0 72.6201 44.4224 131.446 99.1687 131.446S794.105 653.005 794.105 580.385v-32.883c-13.7085 0-24.814-14.7495-24.814-32.883s11.1056-32.9697 24.814-32.9697ZM670.122 242.79100000000005c-23.6861-18.2198-31.8417-58.3911-18.1334-89.8857s43.9884-42.1665 67.7614-24.0331 31.8417 58.3911 18.1334 89.7987a60.7337 60.7337 0 0 1-18.1334 24.1201V580.385c0 18.1334-11.1056 32.7964-24.814 32.7964s-24.814-14.6626-24.814-32.7964Z"  horiz-adv-x="1497" />

    
    <glyph glyph-name="turangshuishi1" unicode="&#58909;" d="M889.061 713.93c28.28 0 47.133 18.853 47.133 47.133S917.34 808.196 889.06 808.196H134.939c-28.28 0-47.133-18.853-47.133-47.133s18.853-47.133 47.133-47.133h754.123z m0-188.53c28.28 0 47.133 18.853 47.133 47.133s-18.853 47.133-47.133 47.133h-94.266c-28.28 0-47.132-18.853-47.132-47.133s18.853-47.133 47.133-47.133h94.265z m-329.93 0c28.28 0 47.133 18.853 47.133 47.133s-18.853 47.133-47.133 47.133h-94.265c-28.28 0-47.133-18.853-47.133-47.133s18.853-47.133 47.133-47.133h94.265z m-329.93 0c28.28 0 47.133 18.853 47.133 47.133s-18.853 47.133-47.133 47.133h-94.262c-28.28 0-47.133-18.853-47.133-47.133S106.66 525.4 134.94 525.4h94.266z m-94.265-188.53c28.28 0 47.132 18.853 47.132 47.133s-18.853 47.133-47.132 47.133-47.133-18.853-47.133-47.133 18.853-47.133 47.133-47.133z m188.53 0c28.28 0 47.132 18.853 47.132 47.133s-18.853 47.133-47.132 47.133-47.133-18.853-47.133-47.133 18.853-47.133 47.133-47.133z m188.53 0c28.28 0 47.132 18.853 47.132 47.133s-18.853 47.133-47.132 47.133-47.133-18.853-47.133-47.133 18.853-47.133 47.133-47.133z m188.53 0c28.28 0 47.132 18.853 47.132 47.133s-18.853 47.133-47.132 47.133-47.133-18.853-47.133-47.133 18.853-47.133 47.133-47.133z m188.53 0c28.28 0 47.132 18.853 47.132 47.133s-18.853 47.133-47.132 47.133-47.133-18.853-47.133-47.133 18.853-47.133 47.133-47.133zM323.463 195.472c28.28 0 47.132 18.853 47.132 47.133s-18.853 47.133-47.132 47.133-47.133-18.853-47.133-47.133 18.853-47.133 47.133-47.133z m377.06 0c28.28 0 47.133 18.853 47.133 47.133s-18.853 47.133-47.132 47.133-47.133-18.853-47.133-47.133 18.853-47.133 47.133-47.133zM290.47-26.052c18.853-18.853 47.132-18.853 65.985 0l155.538 155.538 155.538-155.538c18.853-18.853 47.133-18.853 65.986 0l188.53 188.53c18.853 18.853 18.853 47.133 0 65.986s-47.132 18.853-65.986 0L700.53 72.924 544.992 228.462c-18.853 18.853-47.133 18.853-65.986 0L323.47 72.924 167.932 228.462c-18.853 18.853-47.133 18.853-65.986 0s-18.853-47.133 0-65.986l188.53-188.53z"  horiz-adv-x="1024" />

    
    <glyph glyph-name="shangpinwenduji" unicode="&#59532;" d="M703.928027 446.760465 703.928027 704.071973c0 106.008247-85.91978 191.928027-191.928027 191.928027s-191.928027-85.91978-191.928027-191.928027l0-257.311508c-77.283019-58.410096-127.952018-150.151693-127.952018-254.496564 0-176.701737 143.178308-319.880045 319.880045-319.880045s319.880045 143.178308 319.880045 319.880045C831.880045 296.608772 781.211046 388.350369 703.928027 446.760465zM512-63.640135c-141.323004 0-255.904036 114.581032-255.904036 255.904036 0 64.487817 24.630763 122.642009 63.976009 167.617144C329.09259 371.01287 341.823816 385.407472 365.047107 391.805073 383.024366 400.82569 384.047982 413.81282 384.047982 431.790079 384.047982 438.50756 384.047982 471.007372 384.047982 511.76009l95.964013 0C497.669374 511.76009 512 526.090716 512 543.748094S497.669374 575.736099 480.011996 575.736099L384.047982 575.736099c0 22.135699 0 44.07947 0 63.976009l95.964013 0C497.669374 639.712108 512 654.042734 512 671.700112S497.669374 703.688117 480.011996 703.688117L384.047982 703.688117c0 0.127952 0 0.255904 0 0.383856 0 70.629514 57.322504 127.952018 127.952018 127.952018s127.952018-57.322504 127.952018-127.952018l0-271.898038c0-31.41222 26.997876-38.193677 63.976009-72.29289 39.345246-44.975134 63.976009-103.129327 63.976009-167.617144C767.904036 50.940897 653.323004-63.640135 512-63.640135zM671.940022 224.251906c-17.657378 0-31.988004-14.330626-31.988004-31.988004 0-70.629514-57.322504-127.952018-127.952018-127.952018-17.657378 0-31.988004-14.330626-31.988004-31.988004s14.330626-31.988004 31.988004-31.988004c106.008247 0 191.928027 85.91978 191.928027 191.928027C703.928027 209.985256 689.597401 224.251906 671.940022 224.251906z"  horiz-adv-x="1024" />

    
    <glyph glyph-name="app_icons--" unicode="&#58908;" d="M118.528 506.88c0-48.896 39.8336-89.6 87.6032-89.6S293.7856 458.1888 293.7856 506.88c7.9872 57.0368-39.8336 89.6-87.6544 89.6S118.528 555.9808 118.528 506.88z m833.024 208.4864C919.7056 715.5712 896 691.2 896 666.6752c7.9872-24.4224 31.8464-48.8448 55.7568-48.8448 31.8976 0 55.808 24.4224 55.808 48.8448s-24.1152 48.896-56.0128 48.896z m-243.1488-40.3456c47.8208 0 87.6544 40.96 87.6544 89.6s-39.8336 89.6-87.6544 89.6-87.6032-40.96-87.6032-89.6c-7.9872-48.64 31.8464-89.3952 87.6032-89.3952z m-365.056-24.4224c39.8336 0 79.6672 32.5632 79.6672 73.3184s-31.8976 73.5232-79.6672 73.5232c-39.8336 0-79.6672-32.6144-79.6672-73.3184s31.8464-73.3184 79.6672-73.3184zM738.2016 440.32c0-40.96 31.8976-73.3184 79.6672-73.3184 39.8336 0 79.6672 32.6144 79.6672 73.3184s-31.8464 73.3184-79.6672 73.3184C778.24 513.7408 738.2016 481.28 738.2016 440.32z m-197.7856 6.7072c39.8336 0 63.744 32.5632 63.744 65.1776s-31.8464 65.1264-63.744 65.1264c-39.8336 0-63.744-32.5632-63.744-65.1264s31.8976-65.0752 63.744-65.0752z m393.1648-139.3664c-8.5504 0-17.152 0-21.4016-4.352-171.52-122.4704-325.9392-35.0208-330.1888-30.72C260.4032 474.0096 46.08 259.6864 46.08 259.6864a22.8864 22.8864 0 0 1-8.5504-17.5104A33.1264 33.1264 0 0 1 46.08 224.6656c8.6016-13.1072 25.6-8.7552 38.6048 0 4.3008 8.7552 180.0704 179.2 463.104 4.352 4.3008-4.352 72.9088-43.7248 171.52-43.7248 64.3072 0 145.7664 17.5104 227.2768 74.3936a32.9728 32.9728 0 0 1 4.2496 39.3216 21.9648 21.9648 0 0 1-17.2544 8.7552zM88.0128 715.9296a64.4608 64.4608 0 0 1 63.744 65.1264A64.4608 64.4608 0 0 1 88.064 846.336 64.512 64.512 0 0 1 24.32 781.1584a64.4096 64.4096 0 0 1 63.6928-65.2288z m60.0064-589.568H75.776v-209.92h49.5616v69.5296h24.064c43.4688 0 81.408 22.0672 81.408 72.0384 0 51.968-37.376 68.352-82.7904 68.352zM146.8928 25.6h-21.5552v60.928h20.224c23.808 0 37.0688-7.3216 37.0688-28.5184S171.008 25.6 146.8928 25.6z m229.3248 10.24c-3.8912-12.1344-7.2192-25.6-11.3664-38.4H363.52c-3.84 13.0048-7.168 26.2656-11.3152 38.4l-32.6656 90.6752H266.24v-209.92h44.032V-11.776a707.2768 707.2768 0 0 1-6.3488 72.9088h1.1264l16.5888-50.2784 27.9552-76.8h27.136l27.6992 76.8 17.152 50.2784h1.1264a707.2768 707.2768 0 0 1-6.3488-72.9088v-71.9872h45.1072v209.92H407.7568zM568.32-44.2368c31.5904 32.4608 62.0032 72.2944 62.0032 108.4416 0 40.1408-27.648 66.0992-67.5328 66.0992-29.3376 0-48.1792-10.7008-68.4032-32.4608l26.88-27.136c9.6768 10.752 20.48 20.48 34.8672 20.48 16.3328 0 26.88-10.24 26.88-29.696 0-30.72-34.6112-68.608-86.1184-116.3776v-28.7744h142.8992v42.3424h-37.9904a282.1632 282.1632 0 0 1-33.4848-2.9184z m134.2976 18.944a31.2832 31.2832 0 1 1 29.3376-31.0784 29.6448 29.6448 0 0 1-29.5936 31.0784z m137.6256 78.4896a50.7904 50.7904 0 0 1-21.2992-4.2496l3.0208 35.84h73.3696v41.7792h-115.712l-5.12-103.936 21.5552-14.3872c12.2368 7.8848 17.7664 10.24 29.0816 10.24 17.7664 0 30.208-11.3152 30.208-32.4608s-12.4416-32.768-32.4096-32.768c-16.3328 0-30.72 8.7552-42.3424 20.0192l-22.8352-31.8976a97.28 97.28 0 0 1 71.9872-29.1328c39.5776 0 74.496 27.392 74.496 74.5984 0 45.4656-29.3888 66.3552-64.256 66.3552z"  horiz-adv-x="1024" />

    
    <glyph glyph-name="eryanghuatan" unicode="&#60181;" d="M780.65 134.78599999999994a171.445 171.445 0 0 0 3.97682 38.8845 143.609 143.609 0 0 0 12.8142 34.4658 184.701 184.701 0 0 0 21.6515 31.8145 329.635 329.635 0 0 0 30.489 31.8145l25.6284 23.8609c6.18618 5.21406 11.9746 11.0026 17.2329 17.2329 4.06521 4.81637 7.46758 10.163 10.163 15.9073a60.0942 60.0942 0 0 1 4.4187 17.2329c0.44187 7.0699 0.44187 14.1398 0 21.2098a31.3727 31.3727 0 0 1-30.9309 38.8845 28.7215 28.7215 0 0 1-29.6052-18.1167 62.7454 62.7454 0 0 1-4.86057-19.4422v-23.419h-60.9779v10.6049a91.0251 91.0251 0 0 0 23.419 67.1641 100.746 100.746 0 0 0 73.7922 23.419 98.9784 98.9784 0 0 0 70.699-22.0934c16.1725-16.9235 24.4797-39.8567 22.9772-63.1873a140.514 140.514 0 0 0-2.65121-27.8378 106.49 106.49 0 0 0-8.39551-24.7447 116.653 116.653 0 0 0-15.0236-23.419 220.934 220.934 0 0 0-22.5353-22.9772l-35.3495-32.6983a132.561 132.561 0 0 1-22.0934-24.7447 72.4666 72.4666 0 0 1-10.163-21.2098h116.653v-48.6057h-192.654 1.32561Zm-272.191 165.7c0.883739-19.663 4.10939-39.1054 9.72112-57.8849 3.53495-12.8583 10.9141-24.3028 21.2098-32.6983a69.8155 69.8155 0 0 1 72.9085 0c10.2955 8.39551 17.6747 19.8399 21.2098 32.6983 5.56754 18.8236 8.83739 38.2218 9.72112 57.8849 1.76747 23.8609 2.65121 53.2894 2.65121 88.3739 0 35.0401-0.883739 64.513-2.65121 88.3739a246.122 246.122 0 0 1-9.72112 57.8849 64.513 64.513 0 0 1-21.2098 32.6983 69.8155 69.8155 0 0 1-72.9085 0c-10.2955-8.48388-17.6747-19.8842-21.2098-32.6983a244.797 244.797 0 0 1-9.72112-57.8849c-1.76747-23.5958-2.65121-53.0243-2.65121-88.3739s0.883739-64.8222 2.65121-88.3739Zm-98.9784 192.214a233.748 233.748 0 0 0 23.419 83.0714 132.561 132.561 0 0 0 52.1406 53.9082 223.586 223.586 0 0 0 182.493 0 132.561 132.561 0 0 0 52.1406-53.9082 233.748 233.748 0 0 0 23.419-83.0714 1060.49 1060.49 0 0 0 0-211.657 233.307 233.307 0 0 0-23.419-82.6295 124.165 124.165 0 0 0-52.1406-53.0243 235.517 235.517 0 0 0-182.493 0 124.165 124.165 0 0 0-52.1406 53.0243 233.307 233.307 0 0 0-23.419 82.6295 1060.49 1060.49 0 0 0 0 211.657Zm-171.888 56.5593a49.0476 49.0476 0 0 1-47.7218 25.1866 47.7218 47.7218 0 0 1-31.3727-10.163 68.0479 68.0479 0 0 1-19.4422-33.1402 283.68 283.68 0 0 1-9.72112-60.0942c-1.76747-24.7447-2.65121-55.1011-2.65121-91.0251a876.668 876.668 0 0 1 3.97682-92.7925c1.45817-18.7353 5.43499-37.2054 11.9306-54.7918 3.62333-10.7817 10.7817-19.9726 20.326-26.0704 8.83739-4.63962 18.7353-6.93733 28.7215-6.62803 8.57227-0.176747 17.1445 1.32561 25.1866 4.4187a44.187 44.187 0 0 1 20.326 18.5584 119.746 119.746 0 0 1 13.2561 38.8845 356.147 356.147 0 0 1 4.86057 66.2803h101.63a454.683 454.683 0 0 0-6.18618-77.7691 176.747 176.747 0 0 0-23.8609-64.513 117.537 117.537 0 0 0-48.6057-44.187 184.701 184.701 0 0 0-81.7458-15.4654 192.214 192.214 0 0 0-91.0251 18.5584 124.165 124.165 0 0 0-52.1406 53.0243 233.307 233.307 0 0 0-23.419 82.6295 1060.49 1060.49 0 0 0 0 211.657 233.748 233.748 0 0 0 23.419 83.0714 132.561 132.561 0 0 0 52.1406 53.9082 183.376 183.376 0 0 0 91.0251 19.4422 176.747 176.747 0 0 0 85.7227-17.6747c19.3538-10.2072 35.5262-25.4958 46.8381-44.187 10.3397-18.1167 16.9678-38.0891 19.4422-58.7686 2.51866-19.663 3.84426-39.4147 3.97682-59.2105h-101.63a183.376 183.376 0 0 1-13.2561 80.8621Z"  horiz-adv-x="1024" />

    
    <glyph glyph-name="guangzhao" unicode="&#60186;" d="M265.654 333.725H109.802a50.275 50.275 0 1 0 0 100.55h155.851a251.676 251.676 0 0 0 196.073 196.073V786.198a50.275 50.275 0 1 0 100.55 0v-155.851a251.676 251.676 0 0 0 196.073-196.073H914.198a50.275 50.275 0 0 0 0-100.55h-155.851a251.676 251.676 0 0 0-196.073-196.073V-18.19799999999998a50.275 50.275 0 0 0-100.55 0v155.851a251.676 251.676 0 0 0-196.073 196.073Zm246.346 201.099a150.825 150.825 0 1 1 0-301.649 150.825 150.825 0 0 1 0 301.649Zm301.649 100.55a50.275 50.275 0 0 0-35.6951 85.97l50.275 50.275A50.275 50.275 0 1 0 899.118 700.733l-50.275-50.275a50.275 50.275 0 0 0-35.1925-15.0825ZM160.075-18.19799999999998a50.275 50.275 0 0 0-35.6951 85.97l50.275 50.275a50.275 50.275 0 1 0 70.8876-70.8876l-50.275-50.275a50.275 50.275 0 0 0-35.1925-15.0825Zm703.85 0a50.275 50.275 0 0 0-35.6951 14.5797l-50.275 50.275a50.275 50.275 0 0 0 70.8876 70.8876l50.275-50.275A50.275 50.275 0 0 0 863.925-18.19799999999998ZM210.351 635.374a50.275 50.275 0 0 0-35.6951 14.5797l-50.275 50.275A50.275 50.275 0 0 0 195.267 771.1179999999999l50.275-50.275A50.275 50.275 0 0 0 210.351 635.374Z"  horiz-adv-x="1024" />

    
    <glyph glyph-name="turangshidu" unicode="&#60196;" d="M114.583 321.697a37.117 37.117 0 0 0-16.7911 3.53495 44.187 44.187 0 0 0-14.5817 9.27925 44.187 44.187 0 0 0 0 62.7454 44.187 44.187 0 0 0 14.5817 9.27925 40.6521 40.6521 0 0 0 33.582 0c5.30243-2.20934 10.2514-5.39082 14.5817-9.27925a44.187 44.187 0 0 0 0-62.7454 51.6987 51.6987 0 0 0-14.5817-9.27925 37.117 37.117 0 0 0-16.7911-3.53495Zm44.187 176.747h-44.187a44.187 44.187 0 0 0 0 88.3739h44.187a44.187 44.187 0 1 0 0-88.3739Zm44.187 176.747h-88.3739a44.187 44.187 0 0 0 0 88.3739h88.3739a44.187 44.187 0 1 0 0-88.3739Zm-88.3739-530.243a44.187 44.187 0 0 0-16.7911 3.53495 44.187 44.187 0 0 0-14.5817 9.27925 44.187 44.187 0 1 0 62.7454 0 51.6987 51.6987 0 0 0-14.5817-9.27925 44.187 44.187 0 0 0-16.7911-3.53495Zm44.187-176.747h-44.187a44.187 44.187 0 0 0 0 88.3739h44.187a44.187 44.187 0 1 0 0-88.3739Zm751.177 353.495h-8.83739l-7.95364 2.65121a33.582 33.582 0 0 0-7.95364 3.97682l-6.62803 5.30243a44.187 44.187 0 1 0 62.7454 0l-6.62803-5.30243a33.582 33.582 0 0 0-7.95364-3.97682 27.3958 27.3958 0 0 0-8.39551-2.65121h-8.39551Zm0 176.747h-44.187a44.187 44.187 0 0 0 0 88.3739h44.187a44.187 44.187 0 1 0 0-88.3739Zm0 176.747h-88.3739a44.187 44.187 0 0 0 0 88.3739h88.3739a44.187 44.187 0 1 0 0-88.3739Zm0-530.243a46.3962 46.3962 0 0 0-31.3727 12.8142 50.8148 50.8148 0 0 0-9.27925 14.5817 36.6751 36.6751 0 0 0-3.53495 16.7911 44.187 44.187 0 1 0 88.3739 0 44.187 44.187 0 0 0-3.53495-16.7911 50.8148 50.8148 0 0 0-9.27925-14.5817 46.3962 46.3962 0 0 0-31.3727-12.8142Zm0-176.747h-44.187a44.187 44.187 0 0 0 0 88.3739h44.187a44.187 44.187 0 1 0 0-88.3739Zm-397.682 158.631a44.187 44.187 0 0 0 0 88.3739 44.187 44.187 0 0 1 44.187 44.187 44.187 44.187 0 1 0 88.3739 0 132.561 132.561 0 0 0-132.561-132.561Zm-0.883739 539.523c44.187-56.5593 102.955-129.909 150.678-191.329l3.09309-4.4187c103.839-132.561 76.0015-273.517 6.18618-345.983a218.284 218.284 0 0 0-316.82 0c-99.4205 103.397-68.4898 248.331 6.62803 346.425l32.6983 44.187c38.8845 50.8148 81.3039 106.932 117.537 152.445v-1.32561Zm0 114.886a44.187 44.187 0 0 1-34.4658-16.3492c-51.6987-61.4197-128.142-163.051-185.584-238.609-112.235-147.143-121.956-334.494 0-461.312a306.656 306.656 0 0 1 444.078 0c121.956 126.817 108.7 321.238 0 461.312-60.536 77.7691-138.304 176.747-189.562 239.051a44.187 44.187 0 0 1-34.4658 16.3492v-0.44187Z"  horiz-adv-x="1024" />

    
    <glyph glyph-name="turangwendu" unicode="&#60195;" d="M553.425 248.62199999999996a82.8505 82.8505 0 1 0-82.8505 0V673.977a41.4253 41.4253 0 0 0 82.8505 0v-425.354ZM180.598 342.57500000000004H139.173a41.4253 41.4253 0 0 0 0 82.8505h41.4253a41.4253 41.4253 0 0 0 0-82.8505Zm41.4253 165.7H139.173a41.4253 41.4253 0 1 0 0 82.8505h82.8505a41.4253 41.4253 0 1 0 0-82.8505Zm0 165.7H139.173a41.4253 41.4253 0 1 0 0 82.8505h82.8505a41.4253 41.4253 0 1 0 0-82.8505ZM139.173 176.87400000000002a41.4253 41.4253 0 0 0-41.4253 41.4253 34.3829 34.3829 0 0 0 3.31402 15.7417 47.6389 47.6389 0 0 0 8.6993 13.6703A41.4253 41.4253 0 1 0 139.173 176.87400000000002Zm0-165.7a43.4964 43.4964 0 0 0-29.4119 12.0133 41.4253 41.4253 0 0 0-8.6993 13.6703A34.3829 34.3829 0 0 0 97.747 52.597999999999956a41.4253 41.4253 0 1 0 41.4253-41.4253Zm745.654 331.402h-41.4253a41.4253 41.4253 0 1 0 0 82.8505h41.4253a41.4253 41.4253 0 0 0 0-82.8505Zm0 165.7h-82.8505a41.4253 41.4253 0 1 0 0 82.8505h82.8505a41.4253 41.4253 0 0 0 0-82.8505Zm0 165.7h-82.8505a41.4253 41.4253 0 1 0 0 82.8505h82.8505a41.4253 41.4253 0 0 0 0-82.8505Zm0-497.103a41.4253 41.4253 0 1 0 29.4119 12.0133l-6.62803-4.97103a23.1982 23.1982 0 0 0-7.04228-3.72827 25.6836 25.6836 0 0 0-7.87079-2.48551L884.827 176.87400000000002Zm0-165.7a43.4964 43.4964 0 0 0-29.4119 12.0133 47.6389 47.6389 0 0 0-8.6993 13.6703A34.3829 34.3829 0 0 0 843.402 52.597999999999956a41.4253 41.4253 0 1 0 79.5364-15.7417 47.6389 47.6389 0 0 0-8.6993-13.6703A43.4964 43.4964 0 0 0 884.827 11.173000000000001ZM512 798.253a124.276 124.276 0 0 0 124.276-124.276v-294.533a82.8505 82.8505 0 0 1 23.6124-57.9954 207.126 207.126 0 1 0-295.776 0 82.8505 82.8505 0 0 1 23.6124 57.9954V673.977a124.276 124.276 0 0 0 124.276 124.276Zm0 82.8505a207.126 207.126 0 0 1-207.126-207.126v-294.533a289.977 289.977 0 1 1 414.253 0V673.977a207.126 207.126 0 0 1-207.126 207.126Z"  horiz-adv-x="1024" />

    
    <glyph glyph-name="daqiyali" unicode="&#60197;" d="M467.813 106.947V604.845a44.187 44.187 0 1 0 88.3739 0V106.947a88.3739 88.3739 0 1 0-88.3739 0Zm220.934 144.403a44.187 44.187 0 1 0 0 88.3739v44.187a44.187 44.187 0 1 0 0 88.3739v44.187a44.187 44.187 0 0 0 0 88.3739v12.3723a171.445 171.445 0 0 1-180.282 164.374 165.7 165.7 0 0 1-173.213-164.374v-12.3723a44.187 44.187 0 1 0 0-88.3739v-44.187a44.187 44.187 0 1 0 0-88.3739v-44.187a44.187 44.187 0 0 0 0-88.3739v-132.561a132.561 132.561 0 1 0-265.121 0v44.187a44.187 44.187 0 0 0 88.3739 0v-44.187a44.187 44.187 0 1 1 88.3739 0v498.428a252.307 252.307 0 0 0 259.378 252.75H512a258.493 258.493 0 0 0 265.121-252.75v-498.428a44.187 44.187 0 1 1 88.3739 0v44.187a44.187 44.187 0 0 0 88.3739 0v-44.187a132.561 132.561 0 1 0-265.121 0v132.561Zm220.934 44.187a44.187 44.187 0 0 0-44.187 44.187v265.121a44.187 44.187 0 0 0 88.3739 0v-265.121a44.187 44.187 0 0 0-44.187-44.187Zm-795.364 0a44.187 44.187 0 0 0-44.187 44.187v265.121a44.187 44.187 0 1 0 88.3739 0v-265.121a44.187 44.187 0 0 0-44.187-44.187Z"  horiz-adv-x="1024" />

    
    <glyph glyph-name="taiyangfushe" unicode="&#60198;" d="M863.925-18.19799999999998a50.275 50.275 0 0 0-35.6951 14.5797l-251.374 251.374a50.275 50.275 0 0 0 70.8876 70.8876l251.374-251.374A50.275 50.275 0 0 0 863.925-18.19799999999998Zm50.275 251.374a50.275 50.275 0 0 0-35.6951 14.5797l-201.099 201.099a50.275 50.275 0 0 0 70.8876 70.8876l201.099-201.099A50.275 50.275 0 0 0 914.198 233.17499999999995Zm0 301.649a50.275 50.275 0 0 0-35.6951 14.5797l-201.099 201.099A50.275 50.275 0 0 0 748.292 821.391l201.099-201.099A50.275 50.275 0 0 0 914.198 534.825Zm-301.649-603.299a50.275 50.275 0 0 0-35.6951 14.5797l-201.099 201.099a50.275 50.275 0 0 0 70.8876 70.8876l201.099-201.099A50.275 50.275 0 0 0 612.549-68.47400000000004Zm-301.649 0a50.275 50.275 0 0 0-35.6951 14.5797l-201.099 201.099A50.275 50.275 0 0 0 144.994 218.09299999999996l201.099-201.099A50.275 50.275 0 0 0 310.901-68.47400000000004Zm0 804.398a150.825 150.825 0 1 0 0-301.649 150.825 150.825 0 0 0 0 301.649Zm0 100.55a251.374 251.374 0 1 1 0-502.75 251.374 251.374 0 0 1 0 502.75Z"  horiz-adv-x="1024" />

    
    <glyph glyph-name="zhengfaliang" unicode="&#60216;" d="M246.879 427.922a44.187 44.187 0 0 0-44.187 44.187v158.631l-12.8142-12.8142a44.187 44.187 0 0 0-62.3035 62.3035l88.3739 88.3739a44.187 44.187 0 0 0 75.1177-31.3727v-265.121a44.187 44.187 0 0 0-44.187-44.187ZM512 428.187a44.187 44.187 0 0 0-44.187 44.187V737.231a44.187 44.187 0 1 0 88.3739 0V472.372a44.187 44.187 0 0 0-44.187-44.187Zm265.121-0.265121a44.187 44.187 0 0 0-44.187 44.187v265.121a44.187 44.187 0 0 0 75.5596 31.3727l88.3739-88.3739a44.187 44.187 0 0 0-62.3035-62.3035l-12.8142 12.8142v-158.631a44.187 44.187 0 0 0-44.6288-44.187Zm132.561-220.934H114.318a44.187 44.187 0 1 0 0 88.3739h795.364a44.187 44.187 0 0 0 0-88.3739Zm0-176.747H114.318a44.187 44.187 0 1 0 0 88.3739h795.364a44.187 44.187 0 0 0 0-88.3739Z"  horiz-adv-x="1024" />

    
    <glyph glyph-name="kongqishidu" unicode="&#60218;" d="M511.294 129.92499999999995a44.187 44.187 0 0 0 0 88.3739 57.8849 57.8849 0 0 1 57.0012 58.7686 44.187 44.187 0 0 0 88.3739 0 146.258 146.258 0 0 0-145.376-147.143Zm-0.883739 630.547c53.9082-65.8385 124.165-156.42 182.049-231.54l3.53495-4.86057c88.3739-115.327 120.188-293.842 6.18618-411.822a262.029 262.029 0 0 0-380.007 0c-102.955 106.932-100.304 272.634 6.62803 412.263l37.117 49.0476c47.7218 62.7454 100.746 132.561 144.491 186.469v0.44187Zm0 109.141a51.2567 51.2567 0 0 1-39.3264-18.5584c-59.2105-70.2571-146.258-186.469-212.098-273.074-128.142-167.911-139.63-382.218 0-527.15a350.401 350.401 0 0 1 507.707 0c139.63 144.932 124.165 367.194 0 527.15-68.9316 88.3739-158.189 204.144-216.515 273.074a51.6987 51.6987 0 0 1-38.8845 19.0003l-0.883739-0.44187Z"  horiz-adv-x="1024" />

    
    <glyph glyph-name="suanjiandu" unicode="&#60230;" d="M697.012 705.706v-198.418a120.123 120.123 0 0 0 112.615 58.9893 116.906 116.906 0 0 0 86.875-31.1035 139.429 139.429 0 0 0 30.5671-100.282v-341.601h-118.514v318.542a79.3671 79.3671 0 0 1-11.7979 50.4087 48.2639 48.2639 0 0 1-38.6111 13.9429 62.2066 62.2066 0 0 1-62.7431-76.1497v-306.745H576.353v612.415h120.66Zm-344.283 0a178.042 178.042 0 0 0 79.3671-16.088c20.9145-9.54553 39.3083-23.8637 53.6267-41.8287a160.88 160.88 0 0 0 28.4221-58.9893 268.132 268.132 0 0 0 8.58025-66.497 219.87 219.87 0 0 0-13.9429-82.585 149.619 149.619 0 0 0-39.6836-57.3804 164.633 164.633 0 0 0-61.1342-33.2483 268.132 268.132 0 0 0-79.9035-11.2615H259.955v-244.537H136.613v612.415h216.115Zm-37.5387-277.25a81.5123 81.5123 0 0 1 59.5255 22.523 93.8463 93.8463 0 0 1 22.523 69.7143 107.253 107.253 0 0 1-19.8418 70.2509 80.976 80.976 0 0 1-65.9606 24.1321h-53.6267v-186.084h53.6267l3.75387-0.536267Z"  horiz-adv-x="1024" />

    
    <glyph glyph-name="jiangyuliang" unicode="&#60232;" d="M787.063 508.276H760.551a41.4253 41.4253 0 0 0 0 82.8505h26.5121a82.8505 82.8505 0 1 1 0 165.7H429.15a41.4253 41.4253 0 1 0 0 82.8505h357.915a165.7 165.7 0 1 0 0-331.402ZM263.449 756.827H97.747a41.4253 41.4253 0 1 0 0 82.8505h165.7a41.4253 41.4253 0 1 0 0-82.8505Zm0-331.402H180.598a124.276 124.276 0 1 0 0 248.551h414.253a41.4253 41.4253 0 0 0 0-82.8505H180.598a41.4253 41.4253 0 1 1 0-82.8505h82.8505a41.4253 41.4253 0 1 0 0-82.8505Zm0-289.977a41.4253 41.4253 0 0 0-41.4253 41.4253v124.276a41.4253 41.4253 0 0 0 82.8505 0v-124.276a41.4253 41.4253 0 0 0-41.4253-41.4253Zm0-207.126a41.4253 41.4253 0 0 0-41.4253 41.4253v41.4253a41.4253 41.4253 0 0 0 82.8505 0v-41.4253a41.4253 41.4253 0 0 0-41.4253-41.4253Zm248.551 289.977a41.4253 41.4253 0 0 0-41.4253 41.4253v41.4253a41.4253 41.4253 0 0 0 82.8505 0v-41.4253a41.4253 41.4253 0 0 0-41.4253-41.4253Zm0-289.977a41.4253 41.4253 0 0 0-41.4253 41.4253v124.276a41.4253 41.4253 0 0 0 82.8505 0v-124.276a41.4253 41.4253 0 0 0-41.4253-41.4253Zm248.551 207.126a41.4253 41.4253 0 0 0-41.4253 41.4253v124.276a41.4253 41.4253 0 0 0 82.8505 0v-124.276a41.4253 41.4253 0 0 0-41.4253-41.4253Zm0-207.126a41.4253 41.4253 0 0 0-41.4253 41.4253v41.4253a41.4253 41.4253 0 0 0 82.8505 0v-41.4253a41.4253 41.4253 0 0 0-41.4253-41.4253Z"  horiz-adv-x="1024" />

    
    <glyph glyph-name="fengsu2" unicode="&#60233;" d="M600.373 428.187V737.495h-176.747v-309.309h176.747Zm88.3739 0h132.561a44.187 44.187 0 0 1 44.187 44.187V693.309a44.187 44.187 0 0 1-44.187 44.187h-132.561v-309.309Zm-353.495 0V737.495H158.505v-309.309h176.747Zm-176.747-88.3739v-353.495a44.187 44.187 0 0 0-88.3739 0V781.682a44.187 44.187 0 0 0 44.187 44.187h706.99a132.561 132.561 0 0 0 132.561-132.561v-220.934a132.561 132.561 0 0 0-132.561-132.561H158.505Z"  horiz-adv-x="1024" />

    
    <glyph glyph-name="fengxiang" unicode="&#60234;" d="M70.13 295.62699999999995V781.682a44.187 44.187 0 0 0 44.187 44.187h486.057a44.187 44.187 0 0 0 31.3727-75.5596L158.505 277.067V-13.682000000000016a44.187 44.187 0 1 0-88.3739 0v309.309Zm88.3739 106.49L493.884 737.495H158.505v-335.378Zm713.045-66.9872A220.934 220.934 0 0 0 732.934-57.870000000000004H291.066a44.187 44.187 0 1 0 0 88.3739h304.006a44.187 44.187 0 1 1 0 88.3739H291.066a44.187 44.187 0 1 0 0 88.3739h304.006a132.561 132.561 0 0 0 125.049-176.747H732.934a132.561 132.561 0 1 1 0 265.121h-265.121a44.187 44.187 0 1 0 0 88.3739h309.309a44.187 44.187 0 0 1 0 88.3739h-132.561a44.187 44.187 0 0 0 0 88.3739h132.561a132.561 132.561 0 0 0 94.4275-225.619Z"  horiz-adv-x="1024" />

    


  </font>
</defs>
</svg>
